<svg xmlns="http://www.w3.org/2000/svg" viewBox="0 0 100 100">
  <defs>
    <linearGradient id="grad" x1="0%" y1="0%" x2="100%" y2="100%">
      <stop offset="0%" style="stop-color:#00ffd5;stop-opacity:1" />
      <stop offset="50%" style="stop-color:#0affab;stop-opacity:1" />
      <stop offset="100%" style="stop-color:#ffd700;stop-opacity:1" />
    </linearGradient>
    <filter id="glow">
      <feGaussianBlur stdDeviation="2" result="coloredBlur"/>
      <feMerge>
        <feMergeNode in="coloredBlur"/>
        <feMergeNode in="SourceGraphic"/>
      </feMerge>
    </filter>
  </defs>
  <rect width="100" height="100" rx="20" fill="#050508"/>
  <rect x="5" y="5" width="90" height="90" rx="16" fill="none" stroke="url(#grad)" stroke-width="1" opacity="0.5"/>
  <path d="M50 15c-19.33 0-35 15.67-35 35 0 15.46 10.03 28.59 23.93 33.22 1.75.32 2.39-.76 2.39-1.68 0-.83-.03-3.59-.05-6.51-9.74 2.12-11.79-4.13-11.79-4.13-1.59-4.04-3.89-5.12-3.89-5.12-3.18-2.17.24-2.13.24-2.13 3.52.25 5.37 3.61 5.37 3.61 3.12 5.35 8.19 3.8 10.19 2.91.31-2.26 1.22-3.81 2.22-4.68-7.77-.89-15.95-3.89-15.95-17.31 0-3.82 1.37-6.95 3.61-9.4-.36-.89-1.56-4.45.34-9.27 0 0 2.94-.94 9.63 3.59 2.79-.78 5.79-1.16 8.77-1.18 2.98.02 5.98.4 8.78 1.18 6.68-4.53 9.61-3.59 9.61-3.59 1.91 4.82.71 8.38.35 9.27 2.25 2.45 3.6 5.58 3.6 9.4 0 13.45-8.2 16.41-16 17.28 1.26 1.08 2.38 3.22 2.38 6.49 0 4.68-.04 8.46-.04 9.61 0 .93.63 2.02 2.41 1.68C74.99 78.57 85 65.44 85 50c0-19.33-15.67-35-35-35z" fill="url(#grad)" filter="url(#glow)"/>
</svg>
